<svg id="Camada_1" data-name="Camada 1" xmlns="http://www.w3.org/2000/svg" viewBox="0 0 480 129">
  <defs>
    <style>
      .cls-1 {
        fill: #fedc00;
      }
    </style>
  </defs>
  <g>
    <g>
      <path class="cls-1" d="M17.42,48.29,72.75,16a.84.84,0,0,1,1.26.73V31.31a2.35,2.35,0,0,1-1.17,2l-52.67,31V66L72.84,97.3a2.33,2.33,0,0,1,1.17,2v14.91a.84.84,0,0,1-1.25.73L17.42,83.5a.84.84,0,0,1-.42-.73V49A.83.83,0,0,1,17.42,48.29Z"/>
      <path class="cls-1" d="M71.89,48.76,46.22,63.43a1.41,1.41,0,0,0-.71,1.23V77.92a1.42,1.42,0,0,0,2.15,1.22L73.33,63.62A1.43,1.43,0,0,0,74,62.41V50A1.42,1.42,0,0,0,71.89,48.76Z"/>
    </g>
    <g>
      <path d="M93.44,40H125.9V52.51H106.34v8.93h16.81v12H106.34V92.09H93.44Z"/>
      <path d="M167.17,87.4Q162,93,152.4,93t-14.8-5.6q-5.22-5.59-5.22-16.27V40h12.9V70.9a12,12,0,0,0,1.81,7,6.59,6.59,0,0,0,10.53,0,12,12,0,0,0,1.84-7V40h12.9v31.1Q172.36,81.79,167.17,87.4Z"/>
      <path d="M204.12,53.34V92.09h-12.9V53.34H178V40h39.23V53.34Z"/>
      <path d="M258,87.4Q252.75,93,243.18,93t-14.8-5.6q-5.24-5.59-5.23-16.27V40h12.9V70.9a12.12,12.12,0,0,0,1.81,7,6.6,6.6,0,0,0,10.54,0,12,12,0,0,0,1.84-7V40h12.9v31.1Q263.14,81.79,258,87.4Z"/>
      <path d="M307.92,64.62a12.38,12.38,0,0,1-5.78,5.68l8.93,21.79H296.59l-7.12-19h-4.79v19h-12.9V40h24.58a12.51,12.51,0,0,1,7.39,2.15A13.31,13.31,0,0,1,308.36,48a20.38,20.38,0,0,1,1.54,8A18.62,18.62,0,0,1,307.92,64.62Zm-12.2-11.35a3.14,3.14,0,0,0-2.57-1.36h-8.47v9.61h8.47a3.13,3.13,0,0,0,2.57-1.4,5.57,5.57,0,0,0,1-3.45A5.4,5.4,0,0,0,295.72,53.27Z"/>
      <path d="M344.11,92.09l-1.69-7.34H328.35l-1.69,7.34H313.47L328.12,40h15l14.65,52.06ZM331,73.1h8.7l-4.21-18.55h-.23Z"/>
      <path d="M394.93,41.65a11.34,11.34,0,0,1,4,4.58,14.44,14.44,0,0,1,1.49,6.58q0,9.61-6.71,12.11v.31q7.63,2.26,7.64,13a16.15,16.15,0,0,1-1.54,7.23,12,12,0,0,1-4.24,4.88,10.6,10.6,0,0,1-5.89,1.74H362.62V40h26.74A10.14,10.14,0,0,1,394.93,41.65ZM375.52,60.31h8.87a2.52,2.52,0,0,0,2.13-1.18,4.8,4.8,0,0,0,.85-2.91v-.76a4.6,4.6,0,0,0-.87-2.83,2.57,2.57,0,0,0-2.11-1.18h-8.87Zm0,19.67h9.81a2.54,2.54,0,0,0,2.13-1.17,4.87,4.87,0,0,0,.85-2.91v-.76a4.87,4.87,0,0,0-.85-2.91,2.53,2.53,0,0,0-2.13-1.18h-9.81Z"/>
      <path d="M408.62,92.09V40h12.9V92.09Z"/>
      <path d="M453.86,53.34V92.09H441V53.34h-13.2V40H467V53.34Z"/>
    </g>
  </g>
</svg>
