<svg id="Camada_1" data-name="Camada 1" xmlns="http://www.w3.org/2000/svg" viewBox="0 0 483 134">
  <g>
    <g>
      <path d="M17.42,45.29,72.75,13a.84.84,0,0,1,1.26.73V28.31a2.35,2.35,0,0,1-1.17,2l-52.67,31V63L72.84,94.3a2.33,2.33,0,0,1,1.17,2v14.91a.84.84,0,0,1-1.25.73L17.42,80.5a.84.84,0,0,1-.42-.73V46A.83.83,0,0,1,17.42,45.29Z"/>
      <path d="M71.89,45.76,46.22,60.43a1.41,1.41,0,0,0-.71,1.23V74.92a1.42,1.42,0,0,0,2.15,1.22L73.33,60.62A1.43,1.43,0,0,0,74,59.41V47A1.42,1.42,0,0,0,71.89,45.76Z"/>
    </g>
    <g>
      <path d="M93.44,37H125.9V49.51H106.34v8.93h16.81v12H106.34V89.09H93.44Z"/>
      <path d="M167.17,84.4Q162,90,152.4,90t-14.8-5.6q-5.22-5.59-5.22-16.27V37h12.9V67.9a12,12,0,0,0,1.81,7,6.59,6.59,0,0,0,10.53,0,12,12,0,0,0,1.84-7V37h12.9v31.1Q172.36,78.79,167.17,84.4Z"/>
      <path d="M204.12,50.34V89.09h-12.9V50.34H178V37h39.23V50.34Z"/>
      <path d="M258,84.4Q252.75,90,243.18,90t-14.8-5.6q-5.24-5.59-5.23-16.27V37h12.9V67.9a12.12,12.12,0,0,0,1.81,7,6.6,6.6,0,0,0,10.54,0,12,12,0,0,0,1.84-7V37h12.9v31.1Q263.14,78.79,258,84.4Z"/>
      <path d="M307.92,61.62a12.38,12.38,0,0,1-5.78,5.68l8.93,21.79H296.59l-7.12-19h-4.79v19h-12.9V37h24.58a12.51,12.51,0,0,1,7.39,2.15A13.31,13.31,0,0,1,308.36,45a20.38,20.38,0,0,1,1.54,8A18.62,18.62,0,0,1,307.92,61.62Zm-12.2-11.35a3.14,3.14,0,0,0-2.57-1.36h-8.47v9.61h8.47a3.13,3.13,0,0,0,2.57-1.4,5.57,5.57,0,0,0,1-3.45A5.4,5.4,0,0,0,295.72,50.27Z"/>
      <path d="M344.11,89.09l-1.69-7.34H328.35l-1.69,7.34H313.47L328.12,37h15l14.65,52.06ZM331,70.1h8.7l-4.21-18.55h-.23Z"/>
      <path d="M394.93,38.65a11.34,11.34,0,0,1,4,4.58,14.44,14.44,0,0,1,1.49,6.58q0,9.61-6.71,12.11v.31q7.63,2.27,7.64,13a16.15,16.15,0,0,1-1.54,7.23,12,12,0,0,1-4.24,4.88,10.6,10.6,0,0,1-5.89,1.74H362.62V37h26.74A10.14,10.14,0,0,1,394.93,38.65ZM375.52,57.31h8.87a2.52,2.52,0,0,0,2.13-1.18,4.8,4.8,0,0,0,.85-2.91v-.76a4.6,4.6,0,0,0-.87-2.83,2.57,2.57,0,0,0-2.11-1.18h-8.87Zm0,19.67h9.81a2.54,2.54,0,0,0,2.13-1.17,4.87,4.87,0,0,0,.85-2.91v-.76a4.87,4.87,0,0,0-.85-2.91,2.53,2.53,0,0,0-2.13-1.18h-9.81Z"/>
      <path d="M408.62,89.09V37h12.9V89.09Z"/>
      <path d="M453.86,50.34V89.09H441V50.34h-13.2V37H467V50.34Z"/>
    </g>
  </g>
</svg>
