<svg id="Camada_1" data-name="Camada 1" xmlns="http://www.w3.org/2000/svg" viewBox="0 0 599 445">
  <defs>
    <style>
      .cls-1 {
        fill: none;
        stroke: #000;
        stroke-miterlimit: 10;
        stroke-width: 8px;
      }
    </style>
  </defs>
  <g>
    <path d="M20,302.66V141.05H83.72v15.7H38.39v51.71H75.15v15.7H38.39V287H85.8v15.69Z"/>
    <path d="M95.21,257.87V242.63h48.47v15.24Z"/>
    <path d="M166,325.76h21.52a9.25,9.25,0,0,0,7.63-3.58,14.38,14.38,0,0,0,2.82-9.12V302.9H180.65a25.81,25.81,0,0,1-19.43-8.32q-7.93-8.31-7.94-20.78V211.7q0-12.48,8-20.79a26.16,26.16,0,0,1,19.54-8.31h34V311.44q0,12.92-6.37,20.55t-17.86,7.61H166ZM198.19,289V196.46h-14a13.38,13.38,0,0,0-10,4.38A15.14,15.14,0,0,0,170,211.7v62.1a15.08,15.08,0,0,0,4.18,10.85,13.35,13.35,0,0,0,10,4.39Z"/>
    <path d="M241.33,295.05q-6.79-7.64-6.79-20.55V213.09q0-15,7.52-23.56T264.42,181q14.83,0,22.25,8.55t7.42,23.56V223.7q0,9.7-5,14.67a31.83,31.83,0,0,1-13.17,7.49l-24.65,7.62v22.63a13.6,13.6,0,0,0,3,9.13,9.77,9.77,0,0,0,7.83,3.57h22.57v13.85H259.61Q248.12,302.66,241.33,295.05ZM264,235c4.59-1.38,7.7-2.42,9.3-3.12a5.69,5.69,0,0,0,3.23-3.11,20.31,20.31,0,0,0,.84-6.93V209.16c0-4.92-1.15-8.55-3.45-10.85s-5.46-3.47-9.5-3.47a12.77,12.77,0,0,0-9.5,3.69q-3.66,3.69-3.67,10.63v29.78Z"/>
    <path d="M317.07,294.12q-8.16-8.53-8.16-22.85v-57.5q0-9.92,4.92-16.85a24.71,24.71,0,0,1,12.22-9.46l28-10.85V141.05h16.72V302.66H338.38Q325.21,302.66,317.07,294.12Zm37-5.31v-97l-18.59,6.93c-3.63,1.23-6.16,3.19-7.62,5.88s-2.2,7-2.2,12.81v53.81q0,8.3,4.39,12.92c2.92,3.09,6.89,4.62,11.9,4.62Z"/>
    <path d="M399.68,296.09q-8-8.2-8-22.75V211.93q0-14.55,8-22.74T422.35,181Q437,181,445,189.19t8,22.74v61.41q0,14.55-8,22.75t-22.67,8.19Q407.73,304.28,399.68,296.09ZM432.9,285.7c2.58-2.85,3.86-7,3.86-12.36V211.93q0-8.09-3.86-12.35t-10.55-4.28q-6.69,0-10.54,4.28c-2.59,2.84-3.87,7-3.87,12.35v61.41c0,5.4,1.28,9.51,3.87,12.36s6.08,4.26,10.54,4.26S430.32,288.54,432.9,285.7Z"/>
    <path d="M478.65,295.05q-6.79-7.64-6.79-20.55V213.09q0-14.57,6.9-22.52t20.05-8H522v13.86H499.23A9.47,9.47,0,0,0,491.5,200a13.88,13.88,0,0,0-2.92,9.12v67a13.7,13.7,0,0,0,3,9.13,9.8,9.8,0,0,0,7.84,3.57H522v13.85H496.93Q485.44,302.66,478.65,295.05Z"/>
  </g>
  <g>
    <line class="cls-1" x1="294" y1="19" x2="294" y2="44"/>
    <line class="cls-1" x1="580" y1="19" x2="292" y2="19"/>
    <line class="cls-1" x1="580" y1="398" x2="580" y2="17"/>
    <line class="cls-1" x1="547" y1="398" x2="582" y2="398"/>
  </g>
  <polyline class="cls-1" points="266 159 266 43 549 43 549 427 266 427 266 327"/>
</svg>
