<svg id="Camada_1" data-name="Camada 1" xmlns="http://www.w3.org/2000/svg" viewBox="0 0 563 251">
  <defs>
    <style>
      .cls-1 {
        fill: #fedc00;
      }
    </style>
  </defs>
  <g>
    <path class="cls-1" d="M20,190.66V29.05H83.72v15.7H38.39V96.46H75.15v15.7H38.39V175H85.8v15.69Z"/>
    <path d="M95.21,145.87V130.63h48.47v15.24Z"/>
    <path d="M166,213.76h21.52a9.25,9.25,0,0,0,7.63-3.58,14.38,14.38,0,0,0,2.82-9.12V190.9H180.65a25.81,25.81,0,0,1-19.43-8.32q-7.93-8.31-7.94-20.78V99.7q0-12.48,8-20.79a26.16,26.16,0,0,1,19.54-8.31h34V199.44q0,12.92-6.37,20.55t-17.86,7.61H166ZM198.19,177V84.46h-14a13.38,13.38,0,0,0-10,4.38A15.14,15.14,0,0,0,170,99.7v62.1a15.08,15.08,0,0,0,4.18,10.85,13.35,13.35,0,0,0,10,4.39Z"/>
    <path d="M241.33,183.05q-6.79-7.63-6.79-20.55V101.09q0-15,7.52-23.56T264.42,69q14.83,0,22.25,8.55t7.42,23.56V111.7q0,9.7-5,14.67a31.83,31.83,0,0,1-13.17,7.49l-24.65,7.62v22.63a13.6,13.6,0,0,0,3,9.13,9.77,9.77,0,0,0,7.83,3.57h22.57v13.85H259.61Q248.12,190.66,241.33,183.05ZM264,123c4.59-1.38,7.7-2.42,9.3-3.12a5.69,5.69,0,0,0,3.23-3.11,20.31,20.31,0,0,0,.84-6.93V97.16c0-4.92-1.15-8.55-3.45-10.85s-5.46-3.47-9.5-3.47a12.77,12.77,0,0,0-9.5,3.69q-3.66,3.69-3.67,10.63v29.78Z"/>
    <path d="M317.07,182.12q-8.16-8.53-8.16-22.85v-57.5q0-9.92,4.92-16.85a24.71,24.71,0,0,1,12.22-9.46l28-10.85V29.05h16.72V190.66H338.38Q325.21,190.66,317.07,182.12Zm37-5.31v-97l-18.59,6.93c-3.63,1.23-6.16,3.19-7.62,5.88s-2.2,7-2.2,12.81v53.81q0,8.29,4.39,12.92c2.92,3.09,6.89,4.62,11.9,4.62Z"/>
    <path d="M399.68,184.09q-8-8.21-8-22.75V99.93q0-14.55,8-22.74T422.35,69Q437,69,445,77.19t8,22.74v61.41q0,14.55-8,22.75t-22.67,8.19Q407.73,192.28,399.68,184.09ZM432.9,173.7c2.58-2.85,3.86-7,3.86-12.36V99.93q0-8.09-3.86-12.35T422.35,83.3q-6.69,0-10.54,4.28c-2.59,2.84-3.87,7-3.87,12.35v61.41c0,5.4,1.28,9.51,3.87,12.36s6.08,4.26,10.54,4.26S430.32,176.54,432.9,173.7Z"/>
    <path d="M478.65,183.05q-6.79-7.63-6.79-20.55V101.09q0-14.57,6.9-22.52t20.05-8H522V84.46H499.23A9.47,9.47,0,0,0,491.5,88a13.88,13.88,0,0,0-2.92,9.12v67a13.7,13.7,0,0,0,3,9.13,9.8,9.8,0,0,0,7.84,3.57H522v13.85H496.93Q485.44,190.66,478.65,183.05Z"/>
  </g>
</svg>
